<svg xmlns="http://www.w3.org/2000/svg"  viewBox="0 0 100 100" width="100px" height="100px"><path fill="#c7ede6" d="M87.215,56.71C88.35,54.555,89,52.105,89,49.5c0-6.621-4.159-12.257-10.001-14.478 C78.999,35.015,79,35.008,79,35c0-11.598-9.402-21-21-21c-9.784,0-17.981,6.701-20.313,15.757C36.211,29.272,34.638,29,33,29 c-7.692,0-14.023,5.793-14.89,13.252C12.906,43.353,9,47.969,9,53.5C9,59.851,14.149,65,20.5,65c0.177,0,0.352-0.012,0.526-0.022 C21.022,65.153,21,65.324,21,65.5C21,76.822,30.178,86,41.5,86c6.437,0,12.175-2.972,15.934-7.614C59.612,80.611,62.64,82,66,82 c4.65,0,8.674-2.65,10.666-6.518C77.718,75.817,78.837,76,80,76c6.075,0,11-4.925,11-11C91,61.689,89.53,58.727,87.215,56.71z"/><path fill="#fdfcef" d="M72.5,43.5V44h-3v-0.5c0,0-4.242,0-5.5,0c-2.485,0-4.5-2.015-4.5-4.5 c0-2.333,1.782-4.229,4.055-4.455C63.533,34.364,63.5,34.187,63.5,34c0-2.485,2.015-4.5,4.5-4.5c1.438,0,2.703,0.686,3.527,1.736 C71.667,28.6,73.829,26.5,76.5,26.5c2.761,0,5,2.239,5,5c0,0.446-0.077,0.87-0.187,1.282c0.642-0.777,1.6-1.282,2.687-1.282 c1.781,0,3.234,1.335,3.455,3.055C87.636,34.533,87.813,34.5,88,34.5c2.485,0,4.5,2.015,4.5,4.5s-2.015,4.5-4.5,4.5s-9.5,0-9.5,0 H72.5z"/><path fill="#472b29" d="M76.5,26c3.033,0,5.5,2.467,5.5,5.5c0,0.016,0,0.031,0,0.047C82.602,31.192,83.29,31,84,31 c1.831,0,3.411,1.261,3.858,3.005C87.905,34.002,87.952,34,88,34c2.757,0,5,2.243,5,5s-2.243,5-5,5H72.5 c-0.276,0-0.5-0.224-0.5-0.5s0.224-0.5,0.5-0.5H88c2.206,0,4-1.794,4-4s-1.794-4-4-4c-0.117,0-0.23,0.017-0.343,0.032 l-0.141,0.019c-0.021,0.003-0.041,0.004-0.062,0.004c-0.246,0-0.462-0.185-0.495-0.437C86.768,33.125,85.496,32,84,32 c-0.885,0-1.723,0.401-2.301,1.1c-0.098,0.118-0.241,0.182-0.386,0.182c-0.078,0-0.156-0.018-0.228-0.056 c-0.209-0.107-0.314-0.346-0.254-0.573C80.946,32.218,81,31.852,81,31.5c0-2.481-2.019-4.5-4.5-4.5 c-2.381,0-4.347,1.872-4.474,4.263c-0.011,0.208-0.15,0.387-0.349,0.45c-0.05,0.016-0.101,0.024-0.152,0.024 c-0.15,0-0.296-0.069-0.392-0.192C70.362,30.563,69.221,30,68,30c-2.206,0-4,1.794-4,4c0,0.117,0.017,0.23,0.032,0.343 l0.019,0.141c0.016,0.134-0.022,0.268-0.106,0.373c-0.084,0.105-0.207,0.172-0.34,0.185C61.549,35.247,60,36.949,60,39 c0,2.206,1.794,4,4,4h5.5c0.276,0,0.5,0.224,0.5,0.5S69.776,44,69.5,44H64c-2.757,0-5-2.243-5-5c0-2.397,1.689-4.413,4.003-4.877 C63.001,34.082,63,34.041,63,34c0-2.757,2.243-5,5-5c1.176,0,2.293,0.416,3.183,1.164C71.781,27.76,73.945,26,76.5,26L76.5,26z"/><path fill="#472b29" d="M78 33c1.403 0 2.609.999 2.913 2.341C81.28 35.119 81.699 35 82.125 35c1.202 0 2.198.897 2.353 2.068C84.681 37.022 84.874 37 85.063 37c1.529 0 2.811 1.2 2.918 2.732C87.99 39.87 87.886 39.99 87.749 40c-.006 0-.012 0-.018 0-.13 0-.24-.101-.249-.232-.089-1.271-1.151-2.268-2.419-2.268-.229 0-.47.042-.738.127-.022.007-.045.01-.067.01-.055 0-.11-.02-.156-.054C84.038 37.537 84 37.455 84 37.375c0-1.034-.841-1.875-1.875-1.875-.447 0-.885.168-1.231.473-.047.041-.106.063-.165.063-.032 0-.063-.006-.093-.019-.088-.035-.148-.117-.155-.212C80.377 34.512 79.288 33.5 78 33.5c-.208 0-.425.034-.682.107-.023.007-.047.01-.07.01-.109 0-.207-.073-.239-.182-.038-.133.039-.271.172-.309C77.483 33.04 77.744 33 78 33L78 33zM64.117 34.5c1.326 0 2.508.897 2.874 2.182.038.133-.039.271-.172.309C66.795 36.997 66.772 37 66.75 37c-.109 0-.209-.072-.24-.182C66.205 35.748 65.221 35 64.117 35c-.117 0-.23.014-.342.029-.012.002-.023.003-.035.003-.121 0-.229-.092-.246-.217-.019-.137.077-.263.214-.281C63.842 34.516 63.978 34.5 64.117 34.5L64.117 34.5z"/><path fill="#fff" d="M86.5 68h-10c-.276 0-.5-.224-.5-.5s.224-.5.5-.5h10c.276 0 .5.224.5.5S86.777 68 86.5 68zM89.5 68h-1c-.276 0-.5-.224-.5-.5s.224-.5.5-.5h1c.276 0 .5.224.5.5S89.777 68 89.5 68zM94.491 70H85.5c-.276 0-.5-.224-.5-.5s.224-.5.5-.5h8.991c.276 0 .5.224.5.5S94.767 70 94.491 70zM83.5 70h-1c-.276 0-.5-.224-.5-.5s.224-.5.5-.5h1c.276 0 .5.224.5.5S83.777 70 83.5 70zM80.5 70h-2c-.276 0-.5-.224-.5-.5s.224-.5.5-.5h2c.276 0 .5.224.5.5S80.777 70 80.5 70zM86.5 72h-2c-.276 0-.5-.224-.5-.5s.224-.5.5-.5h2c.276 0 .5.224.5.5S86.776 72 86.5 72zM89.5 63c-.177 0-.823 0-1 0-.276 0-.5.224-.5.5 0 .276.224.5.5.5.177 0 .823 0 1 0 .276 0 .5-.224.5-.5C90 63.224 89.776 63 89.5 63zM89.5 65c-.177 0-4.823 0-5 0-.276 0-.5.224-.5.5 0 .276.224.5.5.5.177 0 4.823 0 5 0 .276 0 .5-.224.5-.5C90 65.224 89.776 65 89.5 65zM94.5 67c-.177 0-2.823 0-3 0-.276 0-.5.224-.5.5 0 .276.224.5.5.5.177 0 2.823 0 3 0 .276 0 .5-.224.5-.5C95 67.224 94.776 67 94.5 67z"/><g><path fill="#fff" d="M48.5 20h-10c-.276 0-.5-.224-.5-.5s.224-.5.5-.5h10c.276 0 .5.224.5.5S48.776 20 48.5 20zM52.5 20h-2c-.276 0-.5-.224-.5-.5s.224-.5.5-.5h2c.276 0 .5.224.5.5S52.776 20 52.5 20zM57.5 22h-10c-.276 0-.5-.224-.5-.5s.224-.5.5-.5h10c.276 0 .5.224.5.5S57.777 22 57.5 22zM45.5 22h-1c-.276 0-.5-.224-.5-.5s.224-.5.5-.5h1c.276 0 .5.224.5.5S45.776 22 45.5 22zM42.47 22H40.5c-.276 0-.5-.224-.5-.5s.224-.5.5-.5h1.97c.276 0 .5.224.5.5S42.746 22 42.47 22zM51.5 18h-5c-.276 0-.5-.224-.5-.5s.224-.5.5-.5h5c.276 0 .5.224.5.5S51.777 18 51.5 18zM48.5 24h-2c-.276 0-.5-.224-.5-.5s.224-.5.5-.5h2c.276 0 .5.224.5.5S48.776 24 48.5 24z"/></g><g><path fill="#78a2d2" d="M52 26.75A23.25 23.25 0 1 0 52 73.25A23.25 23.25 0 1 0 52 26.75Z"/><path fill="#472b29" d="M52,73.95c-13.206,0-23.95-10.744-23.95-23.95S38.794,26.05,52,26.05S75.95,36.794,75.95,50 S65.206,73.95,52,73.95z M52,27.45c-12.434,0-22.55,10.115-22.55,22.55S39.566,72.55,52,72.55S74.55,62.435,74.55,50 S64.434,27.45,52,27.45z"/></g><g><path fill="#472b29" d="M69.399,59.188c-0.073,0-0.148-0.017-0.218-0.051c-0.249-0.121-0.352-0.42-0.231-0.668 c0.126-0.259,0.246-0.52,0.359-0.782c0.44-1.021,0.79-2.089,1.041-3.176c0.063-0.27,0.331-0.438,0.6-0.375 c0.269,0.063,0.437,0.331,0.375,0.6c-0.265,1.146-0.634,2.271-1.097,3.347c-0.119,0.277-0.245,0.552-0.378,0.824 C69.762,59.085,69.584,59.188,69.399,59.188z"/></g><g><path fill="#472b29" d="M71.411,52.378c-0.015,0-0.03-0.001-0.045-0.002c-0.275-0.025-0.478-0.269-0.453-0.543 c0.037-0.409,0.061-0.82,0.071-1.23c0.064-2.552-0.374-5.047-1.299-7.417c-0.101-0.257,0.027-0.547,0.284-0.647 c0.259-0.101,0.547,0.025,0.648,0.284c0.975,2.493,1.435,5.12,1.368,7.806c-0.011,0.432-0.036,0.864-0.075,1.295 C71.885,52.183,71.667,52.378,71.411,52.378z"/></g><g><path fill="#472b29" d="M37.734,37.24c-0.123,0-0.245-0.045-0.341-0.135c-0.202-0.188-0.212-0.505-0.024-0.706 c3.259-3.491,7.669-5.696,12.418-6.209c0.279-0.033,0.521,0.169,0.551,0.443s-0.169,0.521-0.443,0.551 c-4.511,0.487-8.7,2.582-11.794,5.896C38.001,37.187,37.868,37.24,37.734,37.24z"/></g><g><path fill="#472b29" d="M38.721,64.782c-0.123,0-0.245-0.045-0.341-0.135c-6.812-6.36-8.363-16.435-3.772-24.499 c0.136-0.241,0.441-0.323,0.682-0.188c0.24,0.137,0.324,0.442,0.187,0.682c-4.36,7.661-2.886,17.231,3.586,23.274 c0.202,0.188,0.212,0.505,0.024,0.706C38.988,64.729,38.855,64.782,38.721,64.782z"/></g><g><path fill="#472b29" d="M60.515,68.119c-0.186,0-0.365-0.104-0.451-0.283c-0.12-0.248-0.016-0.547,0.233-0.667 c2.107-1.016,3.992-2.405,5.604-4.13c0.65-0.697,1.251-1.445,1.786-2.225c0.156-0.226,0.468-0.283,0.695-0.129 c0.228,0.156,0.286,0.468,0.129,0.695c-0.563,0.819-1.195,1.607-1.879,2.34c-1.696,1.816-3.681,3.279-5.9,4.349 C60.661,68.104,60.587,68.119,60.515,68.119z"/></g><g><path fill="#fff" d="M48.5,73V56.5h-6v-6h6l0-5.954c-0.13-5.342,5.25-10.629,14-7.658V42.5l-3.372-0.021 c-2.594,0-3.628,0.607-3.628,2.41V50.5h6.827l-1.2,6H55.5V73"/><path fill="#472b29" d="M56,73h-1V56h5.717l1-5H55v-6.111c0-2.558,1.984-2.91,4.128-2.91L62,41.997v-4.746 c-3.844-1.222-7.33-0.881-9.848,0.973c-2.033,1.494-3.211,3.853-3.152,6.311V51h-6v5h6v17h-1V57h-6v-7h6v-5.454 c-0.067-2.771,1.263-5.441,3.56-7.129c2.864-2.104,6.808-2.461,11.101-1.002L63,36.53v6.473l-3.875-0.024 c-2.641,0-3.125,0.644-3.125,1.91V50h6.937l-1.4,7H56V73z"/></g><g><path fill="#472b29" d="M52,73.93c-13.194,0-23.929-10.735-23.929-23.93S38.806,26.07,52,26.07S75.929,36.806,75.929,50 S65.194,73.93,52,73.93z M52,27.471c-12.422,0-22.529,10.106-22.529,22.529S39.578,72.529,52,72.529S74.529,62.423,74.529,50 S64.422,27.471,52,27.471z"/></g><g><path fill="#fdfcef" d="M36.5,66.5c0,0,1.567,0,3.5,0s3.5-1.567,3.5-3.5c0-1.781-1.335-3.234-3.055-3.455 C40.473,59.366,40.5,59.187,40.5,59c0-1.933-1.567-3.5-3.5-3.5c-1.032,0-1.95,0.455-2.59,1.165 c-0.384-1.808-1.987-3.165-3.91-3.165c-2.209,0-4,1.791-4,4c0,0.191,0.03,0.374,0.056,0.558C26.128,57.714,25.592,57.5,25,57.5 c-1.228,0-2.245,0.887-2.455,2.055C22.366,59.527,22.187,59.5,22,59.5c-1.933,0-3.5,1.567-3.5,3.5s1.567,3.5,3.5,3.5s7.5,0,7.5,0 V67h7V66.5z"/><path fill="#472b29" d="M38.25 62C38.112 62 38 61.888 38 61.75c0-1.223.995-2.218 2.218-2.218.034.009.737-.001 1.244.136.133.036.212.173.176.306-.036.134-.173.213-.306.176-.444-.12-1.1-.12-1.113-.118-.948 0-1.719.771-1.719 1.718C38.5 61.888 38.388 62 38.25 62zM31.5 66A.5.5 0 1 0 31.5 67 .5.5 0 1 0 31.5 66z"/><path fill="#472b29" d="M40,67h-3.5c-0.276,0-0.5-0.224-0.5-0.5s0.224-0.5,0.5-0.5H40c1.654,0,3-1.346,3-3 c0-1.496-1.125-2.768-2.618-2.959c-0.134-0.018-0.255-0.088-0.336-0.196s-0.115-0.244-0.094-0.377C39.975,59.314,40,59.16,40,59 c0-1.654-1.346-3-3-3c-0.85,0-1.638,0.355-2.219,1c-0.125,0.139-0.321,0.198-0.5,0.148c-0.182-0.049-0.321-0.195-0.36-0.379 C33.58,55.165,32.141,54,30.5,54c-1.93,0-3.5,1.57-3.5,3.5c0,0.143,0.021,0.28,0.041,0.418c0.029,0.203-0.063,0.438-0.242,0.54 c-0.179,0.102-0.396,0.118-0.556-0.01C25.878,58.155,25.449,58,25,58c-0.966,0-1.792,0.691-1.963,1.644 c-0.048,0.267-0.296,0.446-0.569,0.405C22.314,60.025,22.16,60,22,60c-1.654,0-3,1.346-3,3s1.346,3,3,3h7.5 c0.276,0,0.5,0.224,0.5,0.5S29.776,67,29.5,67H22c-2.206,0-4-1.794-4-4s1.794-4,4-4c0.059,0,0.116,0.002,0.174,0.006 C22.588,57.82,23.711,57,25,57c0.349,0,0.689,0.061,1.011,0.18C26.176,54.847,28.126,53,30.5,53c1.831,0,3.466,1.127,4.153,2.774 C35.333,55.276,36.155,55,37,55c2.206,0,4,1.794,4,4c0,0.048-0.001,0.095-0.004,0.142C42.739,59.59,44,61.169,44,63 C44,65.206,42.206,67,40,67z"/><path fill="#472b29" d="M34.5,66c-0.159,0-0.841,0-1,0c-0.276,0-0.5,0.224-0.5,0.5c0,0.276,0.224,0.5,0.5,0.5 c0.159,0,0.841,0,1,0c0.276,0,0.5-0.224,0.5-0.5C35,66.224,34.776,66,34.5,66z"/></g></svg>