<svg xmlns="http://www.w3.org/2000/svg"  viewBox="0 0 100 100" width="100px" height="100px"><path fill="#c7ede6" d="M87.215,56.71C88.35,54.555,89,52.105,89,49.5c0-6.621-4.159-12.257-10.001-14.478 C78.999,35.015,79,35.008,79,35c0-11.598-9.402-21-21-21c-9.784,0-17.981,6.701-20.313,15.757C36.211,29.272,34.638,29,33,29 c-7.692,0-14.023,5.793-14.89,13.252C12.906,43.353,9,47.969,9,53.5C9,59.851,14.149,65,20.5,65c0.177,0,0.352-0.012,0.526-0.022 C21.022,65.153,21,65.324,21,65.5C21,76.822,30.178,86,41.5,86c6.437,0,12.175-2.972,15.934-7.614C59.612,80.611,62.64,82,66,82 c4.65,0,8.674-2.65,10.666-6.518C77.718,75.817,78.837,76,80,76c6.075,0,11-4.925,11-11C91,61.689,89.53,58.727,87.215,56.71z"/><path fill="#fdfcef" d="M78.5,71.5V72h3v-0.5c0,0,4.242,0,5.5,0c2.485,0,4.5-2.015,4.5-4.5 c0-2.333-1.782-4.229-4.055-4.455C87.467,62.364,87.5,62.187,87.5,62c0-2.485-2.015-4.5-4.5-4.5c-1.438,0-2.703,0.686-3.527,1.736 C79.333,56.6,77.171,54.5,74.5,54.5c-2.761,0-5,2.239-5,5c0,0.446,0.077,0.87,0.187,1.282C69.045,60.005,68.086,59.5,67,59.5 c-1.781,0-3.234,1.335-3.455,3.055C63.364,62.533,63.187,62.5,63,62.5c-2.485,0-4.5,2.015-4.5,4.5s2.015,4.5,4.5,4.5s9.5,0,9.5,0 H78.5z"/><path fill="#472b29" d="M74.5,54c-3.033,0-5.5,2.467-5.5,5.5c0,0.016,0,0.031,0,0.047C68.398,59.192,67.71,59,67,59 c-1.831,0-3.411,1.261-3.858,3.005C63.095,62.002,63.048,62,63,62c-2.757,0-5,2.243-5,5s2.243,5,5,5h15.5 c0.276,0,0.5-0.224,0.5-0.5S78.776,71,78.5,71H63c-2.206,0-4-1.794-4-4s1.794-4,4-4c0.117,0,0.23,0.017,0.343,0.032l0.141,0.019 c0.021,0.003,0.041,0.004,0.062,0.004c0.246,0,0.462-0.185,0.495-0.437C64.232,61.125,65.504,60,67,60 c0.885,0,1.723,0.401,2.301,1.1c0.098,0.118,0.241,0.182,0.386,0.182c0.078,0,0.156-0.018,0.228-0.056 c0.209-0.107,0.314-0.346,0.254-0.573C70.054,60.218,70,59.852,70,59.5c0-2.481,2.019-4.5,4.5-4.5 c2.381,0,4.347,1.872,4.474,4.263c0.011,0.208,0.15,0.387,0.349,0.45c0.05,0.016,0.101,0.024,0.152,0.024 c0.15,0,0.296-0.069,0.392-0.192C80.638,58.563,81.779,58,83,58c2.206,0,4,1.794,4,4c0,0.117-0.017,0.23-0.032,0.343l-0.019,0.141 c-0.016,0.134,0.022,0.268,0.106,0.373c0.084,0.105,0.207,0.172,0.34,0.185C89.451,63.247,91,64.949,91,67c0,2.206-1.794,4-4,4 h-5.5c-0.276,0-0.5,0.224-0.5,0.5s0.224,0.5,0.5,0.5H87c2.757,0,5-2.243,5-5c0-2.397-1.689-4.413-4.003-4.877 C87.999,62.082,88,62.041,88,62c0-2.757-2.243-5-5-5c-1.176,0-2.293,0.416-3.183,1.164C79.219,55.76,77.055,54,74.5,54L74.5,54z"/><path fill="#472b29" d="M73 61c-1.403 0-2.609.999-2.913 2.341C69.72 63.119 69.301 63 68.875 63c-1.202 0-2.198.897-2.353 2.068C66.319 65.022 66.126 65 65.938 65c-1.529 0-2.811 1.2-2.918 2.732C63.01 67.87 63.114 67.99 63.251 68c.006 0 .012 0 .018 0 .13 0 .24-.101.249-.232.089-1.271 1.151-2.268 2.419-2.268.229 0 .47.041.738.127.022.007.045.01.067.01.055 0 .11-.02.156-.054C66.962 65.537 67 65.455 67 65.375c0-1.034.841-1.875 1.875-1.875.447 0 .885.168 1.231.473.047.041.106.063.165.063.032 0 .063-.006.093-.019.088-.035.148-.117.155-.212C70.623 62.512 71.712 61.5 73 61.5c.208 0 .425.034.682.107.023.007.047.01.07.01.109 0 .207-.073.239-.182.038-.133-.039-.271-.172-.309C73.517 61.04 73.256 61 73 61L73 61zM86.883 62.5c-1.326 0-2.508.897-2.874 2.182-.038.133.039.271.172.309C84.205 64.997 84.228 65 84.25 65c.109 0 .209-.072.24-.182C84.795 63.748 85.779 63 86.883 63c.117 0 .23.014.342.029.012.002.023.003.035.003.121 0 .229-.092.246-.217.019-.137-.077-.263-.214-.281C87.158 62.516 87.022 62.5 86.883 62.5L86.883 62.5z"/><path fill="#fff" d="M31.5 76h-10c-.276 0-.5-.224-.5-.5s.224-.5.5-.5h10c.276 0 .5.224.5.5S31.777 76 31.5 76zM34.5 76h-1c-.276 0-.5-.224-.5-.5s.224-.5.5-.5h1c.276 0 .5.224.5.5S34.777 76 34.5 76zM39.491 78H30.5c-.276 0-.5-.224-.5-.5s.224-.5.5-.5h8.991c.276 0 .5.224.5.5S39.767 78 39.491 78zM28.5 78h-1c-.276 0-.5-.224-.5-.5s.224-.5.5-.5h1c.276 0 .5.224.5.5S28.777 78 28.5 78zM25.5 78h-2c-.276 0-.5-.224-.5-.5s.224-.5.5-.5h2c.276 0 .5.224.5.5S25.777 78 25.5 78zM31.5 80h-2c-.276 0-.5-.224-.5-.5s.224-.5.5-.5h2c.276 0 .5.224.5.5S31.776 80 31.5 80zM34.5 71c-.177 0-.823 0-1 0-.276 0-.5.224-.5.5 0 .276.224.5.5.5.177 0 .823 0 1 0 .276 0 .5-.224.5-.5C35 71.224 34.776 71 34.5 71zM34.5 73c-.177 0-4.823 0-5 0-.276 0-.5.224-.5.5 0 .276.224.5.5.5.177 0 4.823 0 5 0 .276 0 .5-.224.5-.5C35 73.224 34.776 73 34.5 73zM39.5 75c-.177 0-2.823 0-3 0-.276 0-.5.224-.5.5 0 .276.224.5.5.5.177 0 2.823 0 3 0 .276 0 .5-.224.5-.5C40 75.224 39.776 75 39.5 75z"/><g><path fill="#fff" d="M72.5 24h-10c-.276 0-.5-.224-.5-.5s.224-.5.5-.5h10c.276 0 .5.224.5.5S72.776 24 72.5 24zM76.5 24h-2c-.276 0-.5-.224-.5-.5s.224-.5.5-.5h2c.276 0 .5.224.5.5S76.776 24 76.5 24zM81.5 26h-10c-.276 0-.5-.224-.5-.5s.224-.5.5-.5h10c.276 0 .5.224.5.5S81.777 26 81.5 26zM69.5 26h-1c-.276 0-.5-.224-.5-.5s.224-.5.5-.5h1c.276 0 .5.224.5.5S69.776 26 69.5 26zM66.47 26H64.5c-.276 0-.5-.224-.5-.5s.224-.5.5-.5h1.97c.276 0 .5.224.5.5S66.746 26 66.47 26zM75.5 22h-5c-.276 0-.5-.224-.5-.5s.224-.5.5-.5h5c.276 0 .5.224.5.5S75.777 22 75.5 22zM72.5 28h-2c-.276 0-.5-.224-.5-.5s.224-.5.5-.5h2c.276 0 .5.224.5.5S72.776 28 72.5 28z"/></g><g><path fill="#ea5167" d="M37.81,47.585c1.164-6.772,7.049-11.929,14.153-11.929c3.227,0,6.196,1.076,8.595,2.872 l6.127-6.598c-4.009-3.286-9.134-5.259-14.722-5.259c-11.446,0-20.952,8.276-22.879,19.169L37.81,47.585z"/><path fill="#00a698" d="M60.497,61.599c-2.387,1.765-5.338,2.81-8.534,2.81c-7.516,0-13.675-5.769-14.313-13.119 l-8.539,2.846c1.987,10.819,11.459,19.019,22.852,19.019c6.001,0,11.47-2.275,15.594-6.009L60.497,61.599z"/><path fill="#48bed8" d="M69.693,45.72h-4.015H52.442v8.626h13.237c-1.028,3.272-3.194,6.039-6.034,7.839l6.944,5.787 c5.255-4.261,8.616-10.766,8.616-18.058c0-1.432-0.136-2.832-0.385-4.193H69.693z"/><path fill="#fde751" d="M37.586,50.032c0-2.092,0.457-4.075,1.261-5.868l-7.493-4.995 c-1.679,3.214-2.634,6.866-2.634,10.744c0,3.627,0.832,7.059,2.313,10.117l7.511-5.206C38.193,53.58,37.586,51.389,37.586,50.032z"/></g><g><path fill="#472b29" d="M51.962,73.825c-13.185,0-23.913-10.727-23.913-23.913S38.777,26,51.962,26 c5.511,0,10.89,1.922,15.146,5.411l0.552,0.452l-7.022,7.563l-0.483-0.361c-2.394-1.791-5.227-2.738-8.193-2.738 c-7.557,0-13.705,6.148-13.705,13.705s6.148,13.705,13.705,13.705c5.708,0,10.73-3.468,12.77-8.721H51.771v-9.968h23.608l0.1,0.55 c0.263,1.44,0.396,2.892,0.396,4.314C75.875,63.098,65.148,73.825,51.962,73.825z M51.962,27.342 c-12.445,0-22.57,10.125-22.57,22.57s10.125,22.57,22.57,22.57s22.57-10.125,22.57-22.57c0-1.161-0.094-2.343-0.28-3.522h-21.14 v7.284h13.48l-0.274,0.872c-1.98,6.3-7.75,10.533-14.357,10.533c-8.297,0-15.047-6.75-15.047-15.047s6.75-15.047,15.047-15.047 c3.058,0,5.985,0.915,8.506,2.652l5.231-5.633C61.775,28.993,56.925,27.342,51.962,27.342z"/></g><g><path fill="#fdfcef" d="M36.5,36.5c0,0,1.567,0,3.5,0s3.5-1.567,3.5-3.5c0-1.781-1.335-3.234-3.055-3.455 C40.473,29.366,40.5,29.187,40.5,29c0-1.933-1.567-3.5-3.5-3.5c-1.032,0-1.95,0.455-2.59,1.165 c-0.384-1.808-1.987-3.165-3.91-3.165c-2.209,0-4,1.791-4,4c0,0.191,0.03,0.374,0.056,0.558C26.128,27.714,25.592,27.5,25,27.5 c-1.228,0-2.245,0.887-2.455,2.055C22.366,29.527,22.187,29.5,22,29.5c-1.933,0-3.5,1.567-3.5,3.5s1.567,3.5,3.5,3.5s7.5,0,7.5,0 V37h7V36.5z"/><path fill="#472b29" d="M38.25 32C38.112 32 38 31.888 38 31.75c0-1.223.995-2.218 2.218-2.218.034.009.737-.001 1.244.136.133.036.212.173.176.306-.036.134-.173.213-.306.176-.444-.12-1.1-.12-1.113-.118-.948 0-1.719.771-1.719 1.718C38.5 31.888 38.388 32 38.25 32zM31.5 36A.5.5 0 1 0 31.5 37 .5.5 0 1 0 31.5 36z"/><path fill="#472b29" d="M40,37h-3.5c-0.276,0-0.5-0.224-0.5-0.5s0.224-0.5,0.5-0.5H40c1.654,0,3-1.346,3-3 c0-1.496-1.125-2.768-2.618-2.959c-0.134-0.018-0.255-0.088-0.336-0.196s-0.115-0.244-0.094-0.377C39.975,29.314,40,29.16,40,29 c0-1.654-1.346-3-3-3c-0.85,0-1.638,0.355-2.219,1c-0.125,0.139-0.321,0.198-0.5,0.148c-0.182-0.049-0.321-0.195-0.36-0.379 C33.58,25.165,32.141,24,30.5,24c-1.93,0-3.5,1.57-3.5,3.5c0,0.143,0.021,0.28,0.041,0.418c0.029,0.203-0.063,0.438-0.242,0.54 c-0.179,0.102-0.396,0.118-0.556-0.01C25.878,28.155,25.449,28,25,28c-0.966,0-1.792,0.691-1.963,1.644 c-0.048,0.267-0.296,0.446-0.569,0.405C22.314,30.025,22.16,30,22,30c-1.654,0-3,1.346-3,3s1.346,3,3,3h7.5 c0.276,0,0.5,0.224,0.5,0.5S29.776,37,29.5,37H22c-2.206,0-4-1.794-4-4s1.794-4,4-4c0.059,0,0.116,0.002,0.174,0.006 C22.588,27.82,23.711,27,25,27c0.349,0,0.689,0.061,1.011,0.18C26.176,24.847,28.126,23,30.5,23c1.831,0,3.466,1.127,4.153,2.774 C35.333,25.276,36.155,25,37,25c2.206,0,4,1.794,4,4c0,0.048-0.001,0.095-0.004,0.142C42.739,29.59,44,31.169,44,33 C44,35.206,42.206,37,40,37z"/><path fill="#472b29" d="M34.5,36c-0.159,0-0.841,0-1,0c-0.276,0-0.5,0.224-0.5,0.5c0,0.276,0.224,0.5,0.5,0.5 c0.159,0,0.841,0,1,0c0.276,0,0.5-0.224,0.5-0.5C35,36.224,34.776,36,34.5,36z"/></g></svg>